# xmcd
#
# Track frame offsets: 
#        150
#        11974
#        25283
#        35991
#        46836
#        57026
#        67719
#        78622
#        90864
#        102885
#        113150
#        123336
#        135699
#        146821
#        157416
#        170974
#        180750
#        192453
#        201300
#        213258
#        222803
#        234387
#
# Disc length: 3296 seconds
#
# Revision: 0
# Processed by: cddbd v1.5.2PL0 Copyright (c) Steve Scherf et al.
# Submitted via: ExactAudioCopyFreeDBPlugin 1.0
#
DISCID=3d0cde16
DTITLE=Maxine Brown - If I Knew Then What I Know Now:  Complete Single
DTITLE=s As and Bs, 1960-1962
DYEAR=2015
DGENRE=Soul
TTITLE0=All in My Mind
TTITLE1=Harry Let's Marry
TTITLE2=Funny
TTITLE3=Now That You've Gone
TTITLE4=Heaven in Your Arms
TTITLE5=Maxine's Place (instrumental) (as"Frank and The Flips")
TTITLE6=I Don't Need You No More
TTITLE7=Think of Me
TTITLE8=After All We've Been Through
TTITLE9=My Life
TTITLE10=I Got a Funny Kind of Feeling
TTITLE11=What I Don't Know Won't Hurt Me
TTITLE12=Forget Him
TTITLE13=A Man
TTITLE14=My Time for Cryin'
TTITLE15=Wanting You
TTITLE16=I Kneel at Your Throne
TTITLE17=If I Knew Then (What I Know Now)
TTITLE18=Promise Me Anything
TTITLE19=Am I Falling in Love
TTITLE20=If You Have No Real Objections
TTITLE21=Life Goes on Just the Same
EXTD=
EXTT0=
EXTT1=
EXTT2=
EXTT3=
EXTT4=
EXTT5=
EXTT6=
EXTT7=
EXTT8=
EXTT9=
EXTT10=
EXTT11=
EXTT12=
EXTT13=
EXTT14=
EXTT15=
EXTT16=
EXTT17=
EXTT18=
EXTT19=
EXTT20=
EXTT21=
PLAYORDER=
